<svg xmlns="http://www.w3.org/2000/svg" xmlns:xlink="http://www.w3.org/1999/xlink" viewBox="0 0 151 151" fill="#fff" fill-rule="evenodd" stroke="#000" stroke-linecap="round" stroke-linejoin="round"><use xlink:href="#A" x=".5" y=".5"/><symbol id="A" overflow="visible"><g stroke="none" fill-rule="nonzero"><path d="M0 22.179A22.13 22.13 0 0 1 22.179 0h105.059a22.13 22.13 0 0 1 22.179 22.179v105.059a22.13 22.13 0 0 1-22.179 22.179H22.179A22.13 22.13 0 0 1 0 127.238z" fill="#2100ff"/><path d="M52.391 23.023a1.5 1.5 0 0 1 1.272.602l1.655 2.231c.49.665.352 1.601-.31 2.095l-1.582 1.172 5.559 7.489 2.557-1.898c1.064-.784 2.561-.563 3.353.496l25.312 34.098c.784 1.064.563 2.562-.496 3.353l-2.725 2.02 3.48 7.247-5.872 4.359-5.93-5.426-2.725 2.02c-1.059.786-2.567.563-3.353-.496L59.655 64.963c-2.015 1.502-4.636 1.927-7.023 1.139-1.404 2.413-2.423 5.121-2.944 8.05-1.293 7.277.756 14.338 5.007 19.482 1.799-3.927 5.897-6.672 10.666-6.672 3.272 0 6.228 1.293 8.343 3.369h.001l.01.012c.368.362.711.748 1.026 1.157l6.089 6.867c.111-.213.266-.407.464-.566l18.99-15.256a1.8 1.8 0 0 1 2.527.275l2.088 2.599a1.8 1.8 0 0 1-.275 2.527l-18.99 15.256c-.102.082-.213.152-.331.209l1.859 2.096a.71.71 0 0 1 .104-.102l13.51-10.811c.388-.308.952-.246 1.263.14l1.965 2.456c.308.388.246.952-.14 1.263l-12.027 9.624h15.293c1.322.005 2.392 1.075 2.397 2.397v6.754c-.005 1.322-1.075 2.392-2.397 2.397H44.34c-1.322-.005-2.392-1.075-2.397-2.397v-6.754c.004-1.322 1.075-2.393 2.397-2.397h6.089l1.63-5.679c-7.75-6.936-11.827-17.9-9.81-29.25.849-4.776 2.689-9.111 5.253-12.825-.592-2.935.571-5.947 2.981-7.724l-3.206-4.318c-.784-1.064-.563-2.561.496-3.353l2.596-1.927-5.559-7.489-1.618 1.201c-.665.49-1.601.352-2.096-.31l-1.655-2.231c-.49-.665-.352-1.601.31-2.096l11.812-8.762c.248-.185.536-.28.825-.292z"/></g></symbol></svg>